<svg preserveAspectRatio="none" overflow="visible" style="display: block;" width="52.42" height="53.3388" viewBox="0 0 52.42 53.3388" fill="none" xmlns="http://www.w3.org/2000/svg">
<g id="Group">
<g id="Group_2">
<g id="Group_3">
<path id="Vector" d="M1.07152 53.0154C2.08054 54.1089 6.23662 52.202 9.51703 50.6729C11.9751 49.5306 21.8119 45.4945 26.7014 43.4009C28.0216 42.8364 29.9418 42.0985 31.3242 40.2805C32.551 38.6625 35.8048 31.7905 29.2528 24.8297C22.6031 17.7621 15.7534 19.7135 13.193 21.527C11.6862 22.5938 10.4594 24.9986 9.90818 26.221C7.579 31.3861 4.25859 40.8495 2.90731 44.5699C1.91607 47.3125 0.0713997 51.9309 1.07152 53.0154Z" fill="#FFC107"/>
<path id="Vector_2" d="M9.25149 27.7773C9.31371 28.5508 9.46925 29.8087 10.0026 32.2312C10.367 33.8937 10.9625 35.6361 11.4469 36.7874C12.9002 40.25 14.9401 41.6458 17.0066 42.7659C20.5176 44.6684 22.9041 45.024 22.9041 45.024L20.042 46.193C20.042 46.193 18.3088 45.8329 15.9445 44.6684C13.6913 43.5571 11.3447 41.6769 9.62925 37.9964C8.88706 36.4007 8.45597 34.8538 8.2071 33.627C7.90045 32.1068 7.85156 31.2444 7.85156 31.2444L9.25149 27.7773Z" fill="#FF8F00"/>
<path id="Vector_3" d="M5.73486 36.792C5.73486 36.792 6.0904 39.6763 8.47249 43.3161C11.2635 47.5737 15.161 48.2714 15.161 48.2714L12.5701 49.338C12.5701 49.338 9.67687 48.4536 6.92591 44.6982C5.21044 42.3561 4.73047 39.5563 4.73047 39.5563L5.73486 36.792Z" fill="#FF8F00"/>
<path id="Vector_4" d="M3.26661 43.6279C3.26661 43.6279 3.91547 46.1167 5.33762 47.9744C7.03086 50.192 9.1863 50.8364 9.1863 50.8364L7.19974 51.7164C7.19974 51.7164 5.69315 51.4009 4.04435 49.3121C2.79108 47.7255 2.43555 45.9034 2.43555 45.9034L3.26661 43.6279Z" fill="#FF8F00"/>
<g id="Group_4" opacity="0.44">
<path id="Vector_5" opacity="0.44" d="M2.18721 49.9494C2.09833 49.7494 2.09833 49.5227 2.19166 49.3271L13.5111 25.8486L15.3732 32.8495L3.4627 50.0561C3.14272 50.5362 2.42275 50.4739 2.18721 49.9494Z" fill="#FFFDE7"/>
</g>
<path id="Vector_6" d="M16.2745 35.2004C21.5641 41.3878 27.5871 40.6144 29.5918 39.0497C31.6009 37.4807 33.1878 32.0889 27.9204 26.0037C22.3998 19.6295 16.1501 21.4475 14.7055 22.8255C13.2608 24.2034 11.4206 29.5241 16.2745 35.2004Z" fill="url(#paint0_linear_0_538)"/>
<g id="Group_5">
<path id="Vector_7" d="M34.4401 37.7453C32.511 36.1276 31.4842 36.4165 30.1063 36.9898C28.3283 37.7275 25.5324 38.2742 21.7363 36.9898L22.8787 34.2388C25.1323 34.9988 26.7636 34.6299 28.1727 33.7989C29.9862 32.7322 32.4666 31.2701 36.3248 34.5099C37.9339 35.861 39.583 36.7587 40.792 36.3498C41.6722 36.0565 42.1389 34.7455 42.3745 33.7011C42.3967 33.6078 42.4322 33.3411 42.4589 33.1056C42.6723 31.4745 43.0279 27.9547 45.6504 26.1548C48.4552 24.2305 51.4023 24.2305 51.4023 24.2305L51.9357 29.528C50.5799 29.328 49.6376 29.6035 48.8419 30.0435C45.846 31.7101 48.4552 38.1097 43.7924 40.2607C39.3074 42.3451 35.6403 38.7497 34.4401 37.7453Z" fill="#03A9F4"/>
</g>
<g id="Group_6">
<path id="Vector_8" d="M17.9377 30.9906L16.0089 29.2615C19.551 25.3054 18.6177 22.3984 17.9377 20.2826C17.7999 19.8558 17.6711 19.4513 17.5866 19.0646C17.2844 17.6956 17.2222 16.5043 17.3155 15.4642C15.9556 13.7706 15.3556 11.9971 15.3156 11.877C14.489 9.37451 15.1112 6.93421 16.5378 4.64503C19.4221 0 24.644 0 24.644 0L26.3862 4.66281C25.0618 4.60947 20.7198 4.67614 19.3865 6.77863C17.7022 9.42785 18.8088 11.0636 18.8888 11.2503C19.2132 10.828 19.5421 10.4902 19.8354 10.228C21.9642 8.33883 23.813 8.06768 24.9907 8.17436C26.3151 8.29438 27.515 8.96113 28.3727 10.0546C29.3105 11.2547 29.6971 12.8149 29.3993 14.2329C29.1105 15.6153 28.1905 16.7843 26.8084 17.5266C24.3952 18.8246 22.3864 18.6468 21.0398 18.1978C21.0487 18.229 21.0531 18.2645 21.062 18.2956C21.1109 18.5179 21.2087 18.829 21.3242 19.1891C22.1108 21.6249 23.573 25.4921 17.9377 30.9906ZM21.2042 14.3085C21.462 14.4952 21.7331 14.6507 22.0131 14.7619C22.9463 15.1352 23.9641 15.0108 25.1196 14.3885C25.7995 14.024 25.8795 13.6328 25.9062 13.5039C25.9862 13.1172 25.8529 12.6238 25.564 12.2549C25.3107 11.9304 25.0173 11.7615 24.6663 11.7259C23.9996 11.6681 23.0974 12.0904 22.1953 12.895C21.7642 13.2817 21.4353 13.7573 21.2042 14.3085Z" fill="#F44336"/>
</g>
<g id="Group_7">
<path id="Vector_9" d="M25.6627 31.7148L22.9023 31.6392C22.9023 31.6392 24.2136 24.2338 28.4586 22.9892C29.2542 22.7581 30.1255 22.5225 31.0011 22.3936C31.5212 22.3136 32.3435 22.1936 32.748 22.0425C32.8414 21.3446 32.548 20.4556 32.2191 19.4466C31.9613 18.6643 31.6946 17.8597 31.5523 16.9796C31.2767 15.2638 31.7346 13.7481 32.8414 12.7035C34.1926 11.4367 36.3751 11.0322 38.8377 11.5923C40.2423 11.9123 41.278 12.6013 42.1892 13.2058C43.4916 14.0726 44.2517 14.5126 45.843 13.4414C47.7677 12.1434 45.2518 7.06279 43.9139 4.12909L48.9056 2.04883C49.5768 3.51568 52.8172 11.0633 50.6792 15.3705C49.9591 16.8196 48.7189 17.7797 47.092 18.1397C43.5538 18.931 41.4824 17.553 39.9711 16.5484C39.2555 16.0728 38.6288 15.6994 37.9487 15.5039C33.2236 14.157 39.82 21.109 36.7307 24.2338C34.8772 26.1052 30.3477 26.5986 30.0543 26.6697C27.1384 27.372 25.6627 31.7148 25.6627 31.7148Z" fill="#F48FB1"/>
</g>
</g>
<path id="Vector_10" d="M17.3145 15.4648C17.23 16.4426 17.19 17.0248 17.4434 18.2958C18.6655 19.1935 21.3276 19.1935 21.3276 19.1935C21.2121 18.8336 21.1098 18.5225 21.0654 18.3002C21.0565 18.2691 21.0521 18.2336 21.0432 18.2025C18.3367 16.8514 17.3145 15.4648 17.3145 15.4648Z" fill="#C92B27"/>
</g>
<g id="Group_8">
<path id="Vector_11" d="M11.777 19.8419L7.18164 17.5887L9.47041 14.2822L13.0747 16.6688L11.777 19.8419Z" fill="#FFC107"/>
</g>
<g id="Group_9">
<path id="Vector_12" d="M4.99974 13.6011C2.65319 13.2855 0.262208 11.2945 0 11.0679L2.30654 8.36133C3.00429 8.95241 4.48421 9.94347 5.47527 10.0768L4.99974 13.6011Z" fill="#FB8C00"/>
</g>
<g id="Group_10">
<path id="Vector_13" d="M9.14322 7.67515L5.76562 6.56854C6.15227 5.38638 6.25449 4.11089 6.0545 2.87984L9.56542 2.31543C9.8543 4.102 9.70764 5.95524 9.14322 7.67515Z" fill="#03A9F4"/>
</g>
<g id="Group_11">
<path id="Vector_14" d="M33.7154 4.2744L30.2422 5.03418L31.2451 9.61886L34.7183 8.85908L33.7154 4.2744Z" fill="#FB8C00"/>
</g>
<g id="Group_12">
<path id="Vector_15" d="M38.8584 6.11945L36.4141 3.53736C37.694 2.32409 37.9873 0.737503 37.9873 0.719727L41.4982 1.29303C41.4538 1.57302 41.0049 4.08844 38.8584 6.11945Z" fill="#FFC107"/>
</g>
<g id="Group_13">
<path id="Vector_16" d="M43.32 18.846L40.2148 19.8164L41.2754 23.21L44.3806 22.2396L43.32 18.846Z" fill="#FB8C00"/>
</g>
<g id="Group_14">
<path id="Vector_17" d="M41.1205 48.4626L37.5874 48.0448C37.7385 46.7871 36.8007 45.245 36.543 44.9028L39.3873 42.7695C39.6006 43.0495 41.4538 45.6138 41.1205 48.4626Z" fill="#F44336"/>
</g>
<g id="Group_15">
<path id="Vector_18" d="M51.2622 43.9557C49.9334 43.7557 48.5735 43.6758 47.2313 43.7246L47.1113 40.1693C48.6712 40.1159 50.2489 40.2048 51.7911 40.4404L51.2622 43.9557Z" fill="#FB8C00"/>
</g>
<g id="Group_16">
<path id="Vector_19" d="M48.9824 46.3216L46.4844 48.8516L49.922 52.2457L52.42 49.7157L48.9824 46.3216Z" fill="#F48FB1"/>
</g>
<path id="Vector_20" d="M41.7113 29.3101L39.1426 26.373L36.2055 28.9417L38.7742 31.8788L41.7113 29.3101Z" fill="#F44336"/>
</g>
<defs>
<linearGradient id="paint0_linear_0_538" x1="30.8249" y1="25.7096" x2="17.5934" y2="33.6486" gradientUnits="userSpaceOnUse">
<stop offset="0.0235" stop-color="#8F4700"/>
<stop offset="1" stop-color="#703E2D"/>
</linearGradient>
</defs>
</svg>
